cl__1 = 1e+22;
Point(1) = {-8.9927631884813, -6.306041144579649, 3.62380482144654, cl__1};
Point(2) = {-8.992763188481302, 5.94395885542035, 3.62380482144654, cl__1};
Point(3) = {-8.9927631884813, -6.306041144579649, 2.47380482144654, cl__1};
Point(4) = {-8.992763188481302, 5.94395885542035, 2.47380482144654, cl__1};
Point(5) = {-10.2427631884813, -6.30604114457965, 3.62380482144654, cl__1};
Point(6) = {-10.2427631884813, -6.30604114457965, 2.47380482144654, cl__1};
Point(7) = {-10.2427631884813, 5.94395885542035, 3.62380482144654, cl__1};
Point(8) = {-10.2427631884813, 5.94395885542035, 2.47380482144654, cl__1};
Point(9) = {-10.9677631884813, 6.66895885542035, 2.47380482144654, cl__1};
Point(10) = {-10.9677631884813, 6.66895885542035, 3.62380482144654, cl__1};
Point(11) = {-10.9677631884813, 7.91895885542035, 3.62380482144654, cl__1};
Point(12) = {-10.9677631884813, 7.91895885542035, 2.47380482144654, cl__1};
Point(13) = {-8.9927631884813, -6.306041144579649, 0.273804821446538, cl__1};
Point(14) = {-8.992763188481302, 5.94395885542035, 0.2738048214465365, cl__1};
Point(15) = {-8.9927631884813, -6.30604114457965, -0.8761951785534619, cl__1};
Point(16) = {-8.992763188481302, 5.94395885542035, -0.8761951785534634, cl__1};
Point(17) = {-10.2427631884813, -6.30604114457965, 0.273804821446538, cl__1};
Point(18) = {-10.2427631884813, -6.30604114457965, -0.8761951785534619, cl__1};
Point(19) = {-10.2427631884813, 5.94395885542035, 0.2738048214465365, cl__1};
Point(20) = {-10.2427631884813, 5.94395885542035, -0.8761951785534634, cl__1};
Point(21) = {-10.9677631884813, 6.66895885542035, -0.8761951785534634, cl__1};
Point(22) = {-10.9677631884813, 6.66895885542035, 0.2738048214465364, cl__1};
Point(23) = {-10.9677631884813, 7.91895885542035, 0.2738048214465362, cl__1};
Point(24) = {-10.9677631884813, 7.91895885542035, -0.8761951785534636, cl__1};
Point(25) = {-8.9927631884813, -6.30604114457965, 0.2738048214465378, cl__1};
Point(26) = {-10.2427631884813, -6.30604114457965, 0.2738048214465378, cl__1};
Point(27) = {-8.9927631884813, -6.30604114457965, -0.8761951785534621, cl__1};
Point(28) = {-0.9677631884812996, -6.30604114457965, -0.8761951785534621, cl__1};
Point(29) = {-0.9677631884812996, -6.30604114457965, 3.623804821446538, cl__1};
Point(30) = {-8.9927631884813, -6.30604114457965, 3.623804821446538, cl__1};
Point(31) = {-8.9927631884813, -6.30604114457965, 2.473804821446538, cl__1};
Point(32) = {-10.2427631884813, -6.30604114457965, 2.473804821446538, cl__1};
Point(33) = {-10.2427631884813, -6.30604114457965, 3.623804821446538, cl__1};
Point(34) = {-10.9677631884813, -6.30604114457965, 3.623804821446538, cl__1};
Point(35) = {-10.9677631884813, -6.30604114457965, -0.8761951785534621, cl__1};
Point(36) = {-10.2427631884813, -6.30604114457965, -0.8761951785534621, cl__1};
Point(37) = {-10.9677631884813, 7.91895885542035, -0.8761951785534621, cl__1};
Point(38) = {-8.9927631884813, 5.94395885542035, -0.8761951785534621, cl__1};
Point(39) = {-10.9677631884813, 13.69395885542035, -0.8761951785534621, cl__1};
Point(40) = {-0.9677631884812996, 13.69395885542035, -0.8761951785534621, cl__1};
Point(41) = {-8.9927631884813, 5.94395885542035, 3.623804821446538, cl__1};
Point(42) = {-0.9677631884812996, 13.69395885542035, 3.623804821446538, cl__1};
Point(43) = {-10.9677631884813, 13.69395885542035, 3.623804821446538, cl__1};
Point(44) = {-10.9677631884813, 7.91895885542035, 3.623804821446538, cl__1};
Point(45) = {-10.9677631884813, 6.66895885542035, -0.8761951785534621, cl__1};
Point(46) = {-10.2427631884813, 5.94395885542035, -0.8761951785534621, cl__1};
Point(47) = {-10.2427631884813, 5.94395885542035, 3.623804821446538, cl__1};
Point(48) = {-10.9677631884813, 6.66895885542035, 3.623804821446538, cl__1};
Point(49) = {-10.9677631884813, 7.91895885542035, 0.2738048214465378, cl__1};
Point(50) = {-10.9677631884813, 6.66895885542035, 0.2738048214465378, cl__1};
Point(51) = {-10.9677631884813, 6.66895885542035, 2.473804821446538, cl__1};
Point(52) = {-10.9677631884813, 7.91895885542035, 2.473804821446538, cl__1};
Point(53) = {-10.2427631884813, 5.94395885542035, 2.473804821446538, cl__1};
Point(54) = {-8.9927631884813, 5.94395885542035, 2.473804821446538, cl__1};
Point(55) = {-10.2427631884813, 5.94395885542035, 0.2738048214465378, cl__1};
Point(56) = {-8.9927631884813, 5.94395885542035, 0.2738048214465378, cl__1};
Line(1) = {1, 2};
Line(2) = {3, 1};
Line(3) = {3, 4};
Line(4) = {4, 2};
Line(5) = {5, 1};
Line(6) = {6, 5};
Line(7) = {6, 3};
Line(8) = {7, 5};
Line(9) = {8, 7};
Line(10) = {8, 6};
p11 = newp;
Point(p11 + 1) = {-10.9677631884813, 5.94395885542035, 2.47380482144654};
Circle(11) = {9, p11 + 1, 8};
Line(12) = {9, 10};
p13 = newp;
Point(p13 + 1) = {-10.9677631884813, 5.94395885542035, 3.62380482144654};
Circle(13) = {10, p13 + 1, 7};
Line(14) = {11, 10};
Line(15) = {12, 11};
Line(16) = {12, 9};
p17 = newp;
Point(p17 + 1) = {-10.9677631884813, 5.94395885542035, 3.62380482144654};
Circle(17) = {11, p17 + 1, 2};
p18 = newp;
Point(p18 + 1) = {-10.9677631884813, 5.94395885542035, 2.47380482144654};
Circle(18) = {12, p18 + 1, 4};
Line(19) = {13, 14};
Line(20) = {15, 13};
Line(21) = {15, 16};
Line(22) = {16, 14};
Line(23) = {17, 13};
Line(24) = {18, 17};
Line(25) = {18, 15};
Line(26) = {19, 17};
Line(27) = {20, 19};
Line(28) = {20, 18};
p29 = newp;
Point(p29 + 1) = {-10.9677631884813, 5.94395885542035, -0.8761951785534634};
Circle(29) = {21, p29 + 1, 20};
Line(30) = {21, 22};
p31 = newp;
Point(p31 + 1) = {-10.9677631884813, 5.94395885542035, 0.2738048214465365};
Circle(31) = {22, p31 + 1, 19};
Line(32) = {23, 22};
Line(33) = {24, 23};
Line(34) = {24, 21};
p35 = newp;
Point(p35 + 1) = {-10.9677631884813, 5.94395885542035, 0.2738048214465365};
Circle(35) = {23, p35 + 1, 14};
p36 = newp;
Point(p36 + 1) = {-10.9677631884813, 5.94395885542035, -0.8761951785534634};
Circle(36) = {24, p36 + 1, 16};
Line(37) = {25, 26};
Line(38) = {25, 27};
Line(39) = {28, 27};
Line(40) = {29, 28};
Line(41) = {30, 29};
Line(42) = {31, 30};
Line(43) = {32, 31};
Line(44) = {32, 33};
Line(45) = {34, 33};
Line(46) = {35, 34};
Line(47) = {36, 35};
Line(48) = {26, 36};
p49 = newp;
Point(p49 + 1) = {-10.9677631884813, 5.94395885542035, -0.8761951785534621};
Circle(49) = {37, p49 + 1, 38};
Line(50) = {39, 37};
Line(51) = {40, 39};
Line(52) = {40, 28};
Line(53) = {27, 38};
Line(54) = {30, 41};
Line(55) = {42, 29};
Line(56) = {43, 42};
Line(57) = {43, 44};
p58 = newp;
Point(p58 + 1) = {-10.9677631884813, 5.94395885542035, 3.623804821446538};
Circle(58) = {41, p58 + 1, 44};
Line(59) = {45, 35};
p60 = newp;
Point(p60 + 1) = {-10.9677631884813, 5.94395885542035, -0.8761951785534621};
Circle(60) = {45, p60 + 1, 46};
Line(61) = {46, 36};
Line(62) = {42, 40};
Line(63) = {47, 33};
p64 = newp;
Point(p64 + 1) = {-10.9677631884813, 5.94395885542035, 3.623804821446538};
Circle(64) = {47, p64 + 1, 48};
Line(65) = {48, 34};
Line(66) = {49, 50};
Line(67) = {50, 45};
Line(68) = {51, 48};
Line(69) = {52, 51};
Line(70) = {52, 44};
Line(71) = {39, 43};
Line(72) = {49, 37};
Line(73) = {53, 47};
p74 = newp;
Point(p74 + 1) = {-10.9677631884813, 5.94395885542035, 2.473804821446538};
Circle(74) = {53, p74 + 1, 51};
Line(75) = {53, 32};
Line(76) = {54, 41};
Line(77) = {31, 54};
p78 = newp;
Point(p78 + 1) = {-10.9677631884813, 5.94395885542035, 2.473804821446538};
Circle(78) = {54, p78 + 1, 52};
p79 = newp;
Point(p79 + 1) = {-10.9677631884813, 5.94395885542035, 0.2738048214465378};
Circle(79) = {50, p79 + 1, 55};
Line(80) = {55, 46};
p81 = newp;
Point(p81 + 1) = {-10.9677631884813, 5.94395885542035, 0.2738048214465378};
Circle(81) = {49, p81 + 1, 56};
Line(82) = {56, 38};
Line(83) = {25, 56};
Line(84) = {55, 26};
Curve Loop(1) = {-1, -2, 3, 4};
Plane Surface(1) = {1};
Curve Loop(2) = {-5, -6, 7, 2};
Plane Surface(2) = {2};
Curve Loop(3) = {-8, -9, 10, 6};
Plane Surface(3) = {3};
Curve Loop(4) = {-9, -11, 12, 13};
Surface(4) = {4};
Curve Loop(5) = {-14, -15, 16, 12};
Plane Surface(5) = {5};
Curve Loop(6) = {17, -4, -18, 15};
Surface(6) = {6};
Curve Loop(7) = {-3, -7, -10, -11, -16, 18};
Plane Surface(7) = {7};
Curve Loop(8) = {-5, -8, -13, -14, 17, -1};
Plane Surface(8) = {8};
Curve Loop(9) = {-19, -20, 21, 22};
Plane Surface(9) = {9};
Curve Loop(10) = {-23, -24, 25, 20};
Plane Surface(10) = {10};
Curve Loop(11) = {-26, -27, 28, 24};
Plane Surface(11) = {11};
Curve Loop(12) = {-27, -29, 30, 31};
Surface(12) = {12};
Curve Loop(13) = {-32, -33, 34, 30};
Plane Surface(13) = {13};
Curve Loop(14) = {35, -22, -36, 33};
Surface(14) = {14};
Curve Loop(15) = {-21, -25, -28, -29, -34, 36};
Plane Surface(15) = {15};
Curve Loop(16) = {-23, -26, -31, -32, 35, -19};
Plane Surface(16) = {16};
Curve Loop(17) = {-37, 38, -39, -40, -41, -42, -43, 44, -45, -46, -47, -48};
Plane Surface(17) = {17};
Curve Loop(18) = {-53, -39, -52, 51, 50, 49};
Plane Surface(18) = {18};
Curve Loop(19) = {58, -57, 56, 55, -41, 54};
Plane Surface(19) = {19};
Curve Loop(20) = {-47, -61, -60, 59};
Plane Surface(20) = {20};
Curve Loop(21) = {-55, 62, 52, -40};
Plane Surface(21) = {21};
Curve Loop(22) = {-45, -65, -64, 63};
Plane Surface(22) = {22};
Curve Loop(23) = {72, -50, 71, 57, -70, 69, 68, 65, -46, -59, -67, -66};
Plane Surface(23) = {23};
Curve Loop(24) = {-62, -56, -71, -51};
Plane Surface(24) = {24};
Curve Loop(25) = {-64, -73, 74, 68};
Surface(25) = {25};
Curve Loop(26) = {-73, 75, 44, -63};
Plane Surface(26) = {26};
Curve Loop(27) = {-42, 77, 76, -54};
Plane Surface(27) = {27};
Curve Loop(28) = {-76, 78, 70, -58};
Surface(28) = {28};
Curve Loop(29) = {-74, 75, 43, 77, 78, 69};
Plane Surface(29) = {29};
Curve Loop(30) = {-60, -67, 79, 80};
Surface(30) = {30};
Curve Loop(31) = {-72, 81, 82, -49};
Surface(31) = {31};
Curve Loop(32) = {-53, -38, 83, 82};
Plane Surface(32) = {32};
Curve Loop(33) = {-61, -80, 84, 48};
Plane Surface(33) = {33};
Curve Loop(34) = {-79, -66, 81, -83, 37, -84};
Plane Surface(34) = {34};
Surface Loop(1) = {1, 2, 3, 4, 5, 6, 7, 8};
Volume(1) = {1};
Surface Loop(2) = {9, 10, 11, 12, 13, 14, 15, 16};
Volume(2) = {2};
Surface Loop(3) = {17, 18, 19, 20, 21, 22, 23, 24, 25, 26, 27, 28, 29, 30, 31, 32, 33, 34};
Volume(3) = {3};
Physical Surface("electrode_1_border") = {1, 2, 3, 4, 5, 6, 7, 8};
Physical Surface("electrode_2e_border") = {9, 10, 11, 12, 13, 14, 15, 16};
Physical Surface("Free_convection") = {17, 18, 19, 20, 22};
Physical Surface("T_0") = {21, 24};
Physical Surface("Normal") = {23};
Physical Surface("electrode_1_tissue") = {25, 26, 27, 28, 29};
Physical Surface("electrode_2_tissue") = {30, 31, 32, 33, 34};
Physical Volume("Electrode_1") = {1};
Physical Volume("Electrode_2") = {2};
Physical Volume("Tissue") = {3};
Coherence;